<svg xmlns="http://www.w3.org/2000/svg" style="display: none;">
  <symbol id="car" viewBox="0 0 1280.000000 640.000000">
  <g transform="translate(0.000000,640.000000) scale(0.100000,-0.100000)"
  stroke="none">
  <path d="M3525 5341 c-72 -18 -79 -28 -90 -121 -4 -30 -11 -62 -16 -71 -4 -9
  -97 -51 -206 -94 -774 -304 -1348 -540 -1603 -661 -163 -77 -222 -91 -421
  -104 -85 -5 -170 -14 -189 -20 -101 -32 -362 -58 -620 -63 l-115 -2 -47 -80
  c-47 -78 -47 -80 -29 -100 34 -36 35 -77 5 -177 -30 -99 -34 -178 -19 -370 5
  -67 4 -88 -6 -88 -29 0 -83 -56 -110 -114 -50 -106 -74 -343 -48 -467 13 -58
  13 -62 3 -159 -5 -54 16 -238 28 -244 2 -1 29 -20 61 -41 73 -49 123 -103 132
  -143 17 -79 167 -155 355 -181 104 -15 969 -97 1087 -104 l32 -2 5 160 c7 230
  50 394 146 559 281 479 917 673 1405 429 316 -159 530 -424 598 -742 22 -106
  29 -365 13 -519 l-8 -82 3002 0 c2855 0 3002 1 2995 18 -33 87 -56 325 -45
  461 28 320 177 567 459 759 399 273 847 282 1243 24 239 -157 397 -392 460
  -687 18 -84 15 -341 -5 -430 -8 -38 -14 -71 -12 -73 7 -8 386 20 478 34 180
  28 253 65 304 152 24 41 28 57 28 127 -1 44 -9 117 -20 163 -18 79 -18 88 -2
  190 31 199 40 306 41 497 1 176 -1 195 -23 260 -46 135 -103 190 -283 274
  -222 104 -633 220 -1168 330 -523 108 -1524 210 -2054 211 l-229 0 -236 139
  c-813 477 -1593 884 -1852 966 -498 157 -1598 195 -2892 100 l-188 -14 -47 30
  c-92 58 -223 89 -297 70z m1912 -311 c13 -45 58 -305 88 -515 33 -226 74 -539
  71 -542 -7 -7 -1672 40 -2054 58 -357 16 -464 56 -573 215 -62 91 -87 225 -59
  326 12 40 56 74 192 148 369 198 799 289 1618 340 246 15 290 16 510 16 l194
  -1 13 -45z m649 10 c383 -36 717 -86 934 -139 210 -52 451 -163 720 -332 141
  -88 379 -259 380 -271 0 -5 -14 -8 -32 -8 -48 0 -114 -37 -140 -78 -24 -39
  -30 -113 -15 -189 l9 -43 -904 0 -904 0 -176 540 -175 540 47 0 c25 0 141 -9
  256 -20z"/>
  <path d="M2617 3125 c-431 -82 -774 -440 -838 -875 -17 -117 -7 -292 24 -410
  113 -436 497 -751 947 -777 507 -29 959 313 1076 813 28 117 26 348 -4 467
  -94 378 -383 670 -760 768 -105 27 -336 34 -445 14z m378 -310 c84 -21 209
  -85 280 -142 116 -94 210 -242 251 -393 23 -87 24 -260 0 -355 -58 -237 -242
  -439 -473 -519 -531 -186 -1074 277 -969 828 30 152 94 274 206 386 111 110
  237 178 385 206 84 16 235 11 320 -11z"/>
  <path d="M2918 2568 c2 -90 7 -167 12 -172 17 -17 108 58 201 166 l51 57 -48
  31 c-52 33 -131 65 -185 75 l-34 6 3 -163z"/>
  <path d="M2591 2700 c-62 -22 -167 -82 -164 -94 3 -13 237 -216 249 -216 7 0
  15 7 18 16 8 20 8 127 -1 232 -7 95 -8 96 -102 62z"/>
  <path d="M3209 2355 c-57 -64 -105 -123 -107 -131 -6 -25 46 -35 157 -29 58 3
  121 8 139 11 33 5 34 6 27 42 -7 44 -64 167 -92 201 l-19 24 -105 -118z"/>
  <path d="M2260 2409 c-31 -44 -68 -133 -77 -186 l-6 -33 155 0 c165 0 201 9
  181 44 -13 24 -204 216 -214 216 -5 0 -22 -18 -39 -41z"/>
  <path d="M2786 2354 c-36 -35 0 -87 44 -64 26 14 26 56 1 70 -25 13 -27 13
  -45 -6z"/>
  <path d="M2751 2186 c-57 -32 -68 -111 -22 -157 43 -42 101 -43 143 -1 42 42
  41 100 -1 143 -33 32 -78 38 -120 15z"/>
  <path d="M2560 2136 c-19 -23 -8 -61 18 -64 44 -7 67 32 36 62 -19 20 -38 20
  -54 2z"/>
  <path d="M3002 2124 c-27 -19 -28 -36 -3 -58 25 -23 61 -6 61 29 0 33 -30 49
  -58 29z"/>
  <path d="M2245 1993 c-77 -6 -76 -5 -59 -65 16 -55 61 -146 92 -186 l18 -23
  103 122 c57 67 104 129 105 138 1 14 -14 16 -104 17 -58 0 -127 -1 -155 -3z"/>
  <path d="M3165 1981 c-44 -4 -61 -10 -63 -22 -3 -16 210 -229 228 -229 22 0
  86 141 105 228 l7 32 -109 -2 c-59 -1 -135 -4 -168 -7z"/>
  <path d="M2776 1914 c-19 -18 -19 -20 -6 -45 6 -11 21 -19 35 -19 20 0 45 24
  45 44 0 10 -32 36 -45 36 -7 0 -21 -7 -29 -16z"/>
  <path d="M2589 1743 c-86 -90 -139 -151 -139 -162 0 -25 179 -101 236 -101
  l27 0 -7 143 c-9 166 -13 187 -35 187 -9 0 -46 -30 -82 -67z"/>
  <path d="M2936 1801 c-6 -10 -24 -168 -29 -258 -3 -60 -2 -63 19 -63 79 0 262
  68 248 92 -5 7 -53 64 -108 126 -93 105 -117 124 -130 103z"/>
  <path d="M10723 3125 c-318 -58 -597 -266 -743 -555 -223 -441 -98 -996 289
  -1288 112 -84 188 -125 311 -166 274 -91 545 -70 802 61 552 282 735 983 392
  1500 -225 339 -651 521 -1051 448z m385 -315 c348 -98 579 -443 532 -796 -67
  -508 -596 -796 -1055 -574 -239 116 -396 352 -412 620 -20 335 192 640 516
  745 122 40 289 42 419 5z"/>
  <path d="M11017 2568 c3 -90 9 -167 14 -172 13 -14 53 18 155 122 l95 97 -23
  18 c-50 40 -189 97 -235 97 -10 0 -11 -33 -6 -162z"/>
  <path d="M10705 2706 c-50 -16 -133 -58 -163 -82 l-23 -19 121 -107 c67 -60
  128 -108 135 -108 23 0 27 39 20 186 -8 162 -4 157 -90 130z"/>
  <path d="M11307 2354 c-59 -65 -107 -126 -107 -136 0 -11 11 -18 38 -22 44 -7
  278 7 289 17 15 16 -51 183 -94 236 l-19 24 -107 -119z"/>
  <path d="M10362 2413 c-39 -62 -70 -134 -78 -184 l-7 -39 152 0 c86 0 161 5
  172 10 17 10 18 13 5 38 -8 15 -59 71 -114 125 l-99 99 -31 -49z"/>
  <path d="M10888 2359 c-24 -14 -23 -56 2 -69 44 -23 80 29 44 64 -18 19 -23
  19 -46 5z"/>
  <path d="M10851 2187 c-49 -29 -66 -101 -35 -146 9 -13 32 -29 50 -37 29 -12
  39 -12 68 0 99 41 85 180 -19 192 -24 3 -50 -1 -64 -9z"/>
  <path d="M10660 2136 c-19 -23 -8 -61 18 -64 44 -7 67 32 36 62 -19 20 -38 20
  -54 2z"/>
  <path d="M11096 2124 c-9 -8 -16 -22 -16 -29 0 -13 26 -45 36 -45 20 0 44 25
  44 45 0 14 -8 29 -19 35 -25 13 -27 13 -45 -6z"/>
  <path d="M10335 1991 c-60 -6 -60 -6 -57 -36 9 -69 104 -248 122 -229 57 61
  210 250 207 258 -4 12 -176 17 -272 7z"/>
  <path d="M11267 1983 c-68 -5 -79 -19 -47 -60 23 -31 200 -193 210 -193 3 0
  20 24 37 53 29 48 52 111 67 180 l6 27 -107 -2 c-60 -1 -134 -3 -166 -5z"/>
  <path d="M10870 1910 c-16 -31 4 -62 38 -58 21 2 28 9 30 32 5 45 -47 65 -68
  26z"/>
  <path d="M10651 1703 c-56 -59 -101 -113 -101 -120 0 -28 172 -103 237 -103
  l26 0 -7 123 c-10 179 -15 207 -36 207 -10 0 -63 -48 -119 -107z"/>
  <path d="M11035 1801 c-7 -12 -23 -144 -29 -243 -4 -77 -4 -78 19 -78 45 0
  130 22 193 51 l64 29 -19 23 c-65 82 -198 227 -209 227 -7 0 -15 -4 -19 -9z"/>
  </g>
  </symbol>
  <symbol id="delete" viewBox="0 0 14 18">
    <path d="M11 6V16H3V6H11ZM9.5 0H4.5L3.5 1H0V3H14V1H10.5L9.5 0ZM13 4H1V16C1 17.1 1.9 18 3 18H11C12.1 18 13 17.1 13 16V4Z"/>
  </symbol>
  <symbol id="edit" viewBox="0 0 18 18">
    <path d="M0 18H3.75L14.81 6.94L11.06 3.19L0 14.25V18ZM2 15.08L11.06 6.02L11.98 6.94L2.92 16H2V15.08ZM15.37 0.290003C15.2775 0.197299 15.1676 0.123751 15.0466 0.07357C14.9257 0.0233886 14.796 -0.00244141 14.665 -0.00244141C14.534 -0.00244141 14.4043 0.0233886 14.2834 0.07357C14.1624 0.123751 14.0525 0.197299 13.96 0.290003L12.13 2.12L15.88 5.87L17.71 4.04C17.8027 3.94749 17.8762 3.8376 17.9264 3.71663C17.9766 3.59565 18.0024 3.46597 18.0024 3.335C18.0024 3.20403 17.9766 3.07435 17.9264 2.95338C17.8762 2.83241 17.8027 2.72252 17.71 2.63L15.37 0.290003Z"/>
  </symbol>
  <symbol id="error" viewBox="0 0 28 28">
    <path d="M14 2.84375C11.7935 2.84375 9.63656 3.49805 7.80192 4.72392C5.96729 5.94978 4.53736 7.69215 3.69297 9.73069C2.84858 11.7692 2.62765 14.0124 3.05812 16.1765C3.48859 18.3406 4.55112 20.3284 6.11134 21.8887C7.67157 23.4489 9.65943 24.5114 11.8235 24.9419C13.9876 25.3724 16.2308 25.1514 18.2693 24.307C20.3079 23.4626 22.0502 22.0327 23.2761 20.1981C24.502 18.3634 25.1563 16.2065 25.1563 14C25.1505 11.043 23.9732 8.20868 21.8823 6.11773C19.7913 4.02677 16.957 2.84953 14 2.84375ZM14 23.8437C12.0531 23.8437 10.1499 23.2664 8.53111 22.1848C6.91231 21.1031 5.65062 19.5658 4.90557 17.767C4.16052 15.9683 3.96558 13.9891 4.3454 12.0796C4.72522 10.1701 5.66275 8.41609 7.03942 7.03942C8.4161 5.66274 10.1701 4.72522 12.0796 4.34539C13.9891 3.96557 15.9683 4.16051 17.767 4.90556C19.5658 5.65061 21.1031 6.91231 22.1848 8.53111C23.2664 10.1499 23.8438 12.0531 23.8438 14C23.8409 16.6098 22.8028 19.1119 20.9574 20.9574C19.112 22.8028 16.6098 23.8409 14 23.8437Z"/>
    <path d="M6 6.88889L21.1111 22L22 21.1111L6.88889 6L6 6.88889Z"/>
  </symbol>
  <symbol id="success" viewBox="0 0 28 28">
    <g clip-path="url(#clip0_3000_70892)">
      <path d="M14 3C11.8244 3 9.69767 3.64514 7.88873 4.85383C6.07979 6.06253 4.66989 7.78049 3.83733 9.79048C3.00477 11.8005 2.78693 14.0122 3.21137 16.146C3.6358 18.2798 4.68345 20.2398 6.22183 21.7782C7.76021 23.3165 9.72022 24.3642 11.854 24.7886C13.9878 25.2131 16.1995 24.9952 18.2095 24.1627C20.2195 23.3301 21.9375 21.9202 23.1462 20.1113C24.3549 18.3023 25 16.1756 25 14C25 11.0826 23.8411 8.28472 21.7782 6.22182C19.7153 4.15893 16.9174 3 14 3ZM14 23.625C12.0964 23.625 10.2355 23.0605 8.65264 22.0029C7.06982 20.9453 5.83616 19.4421 5.10766 17.6833C4.37917 15.9246 4.18856 13.9893 4.55995 12.1223C4.93133 10.2552 5.84802 8.54018 7.1941 7.1941C8.54018 5.84802 10.2552 4.93132 12.1223 4.55994C13.9893 4.18856 15.9246 4.37917 17.6833 5.10766C19.4421 5.83615 20.9453 7.06981 22.0029 8.65263C23.0605 10.2355 23.625 12.0964 23.625 14C23.625 16.5527 22.6109 19.0009 20.8059 20.8059C19.0009 22.6109 16.5527 23.625 14 23.625Z" />
      <path d="M18.8562 11.1434C18.7651 11.0516 18.6418 11 18.5134 11C18.3849 11 18.2617 11.0516 18.1706 11.1434L12.7734 16.5942L9.85599 13.6345C9.76701 13.537 9.64351 13.4794 9.51265 13.4743C9.3818 13.4692 9.25432 13.5171 9.15824 13.6074C9.06217 13.6976 9.00538 13.8229 9.00036 13.9557C8.99535 14.0884 9.04252 14.2178 9.1315 14.3152L12.7734 18L18.8562 11.8439C18.9017 11.798 18.9379 11.7435 18.9626 11.6834C18.9873 11.6233 19 11.5588 19 11.4937C19 11.4286 18.9873 11.3641 18.9626 11.304C18.9379 11.2439 18.9017 11.1893 18.8562 11.1434Z"/>
    </g>
    <defs>
      <clipPath id="clip0_3000_70892">
        <rect  width="28" height="28" fill="white"/>
      </clipPath>
    </defs>
  </symbol>
</svg>